<svg width="16" height="16" viewBox="0 0 16 16" fill="none" xmlns="http://www.w3.org/2000/svg">
<g id="vuesax/linear/document-copy">
<path id="Vector" d="M11.334 8.93332V10.9333C11.334 13.6 10.2673 14.6667 7.60065 14.6667H5.06732C2.40065 14.6667 1.33398 13.6 1.33398 10.9333V8.39999C1.33398 5.73332 2.40065 4.66666 5.06732 4.66666H7.06732" stroke="#D2D3E0" stroke-linecap="round" stroke-linejoin="round"/>
<path id="Vector_2" d="M11.3331 8.93332H9.19974C7.59974 8.93332 7.06641 8.39999 7.06641 6.79999V4.66666L11.3331 8.93332Z" stroke="#D2D3E0" stroke-linecap="round" stroke-linejoin="round"/>
<path id="Vector_3" d="M7.73438 1.33334H10.401" stroke="#D2D3E0" stroke-linecap="round" stroke-linejoin="round"/>
<path id="Vector_4" d="M4.66602 3.33334C4.66602 2.22668 5.55935 1.33334 6.66602 1.33334H8.41268" stroke="#D2D3E0" stroke-linecap="round" stroke-linejoin="round"/>
<path id="Vector_5" d="M14.6663 5.33334V9.46001C14.6663 10.4933 13.8263 11.3333 12.793 11.3333" stroke="#D2D3E0" stroke-linecap="round" stroke-linejoin="round"/>
<path id="Vector_6" d="M14.666 5.33334H12.666C11.166 5.33334 10.666 4.83334 10.666 3.33334V1.33334L14.666 5.33334Z" stroke="#D2D3E0" stroke-linecap="round" stroke-linejoin="round"/>
</g>
</svg>
