<svg width="14" height="14" viewBox="0 0 14 14" fill="none" xmlns="http://www.w3.org/2000/svg">
<path d="M13.5 5V3C13.5 1.388 12.612 0.5 11 0.5H3C1.388 0.5 0.5 1.388 0.5 3V5C0.5 5.91067 0.792745 6.58133 1.33008 7C0.792745 7.41867 0.5 8.08933 0.5 9V11C0.5 12.612 1.388 13.5 3 13.5H11C12.612 13.5 13.5 12.612 13.5 11V9C13.5 8.08933 13.2073 7.41867 12.6699 7C13.2073 6.58133 13.5 5.91067 13.5 5ZM12.5 9V11C12.5 12.0513 12.0513 12.5 11 12.5H3C1.94867 12.5 1.5 12.0513 1.5 11V9C1.5 7.94867 1.94867 7.5 3 7.5H11C12.0513 7.5 12.5 7.94867 12.5 9ZM3 6.5C1.94867 6.5 1.5 6.05133 1.5 5V3C1.5 1.94867 1.94867 1.5 3 1.5H11C12.0513 1.5 12.5 1.94867 12.5 3V5C12.5 6.05133 12.0513 6.5 11 6.5H3ZM9.33333 4.00798C9.33333 4.37598 9.03467 4.67464 8.66667 4.67464C8.29867 4.67464 8 4.37598 8 4.00798C8 3.63998 8.29867 3.34131 8.66667 3.34131C9.03467 3.34131 9.33333 3.63998 9.33333 4.00798ZM11.3333 4.00798C11.3333 4.37598 11.0347 4.67464 10.6667 4.67464C10.2987 4.67464 10 4.37598 10 4.00798C10 3.63998 10.2987 3.34131 10.6667 3.34131C11.0347 3.34131 11.3333 3.63998 11.3333 4.00798ZM8 10C8 9.632 8.29867 9.33333 8.66667 9.33333C9.03467 9.33333 9.33333 9.632 9.33333 10C9.33333 10.368 9.03467 10.6667 8.66667 10.6667C8.29867 10.6667 8 10.368 8 10ZM10 10C10 9.632 10.2987 9.33333 10.6667 9.33333C11.0347 9.33333 11.3333 9.632 11.3333 10C11.3333 10.368 11.0347 10.6667 10.6667 10.6667C10.2987 10.6667 10 10.368 10 10Z" fill="#858699"/>
</svg>
