<svg width="16" height="16" viewBox="0 0 16 16" fill="none" xmlns="http://www.w3.org/2000/svg">
<g clip-path="url(#clip0_282_1351)">
<path d="M12.028 9.03333C11.748 9.30666 11.588 9.7 11.628 10.12C11.688 10.84 12.348 11.3667 13.068 11.3667H14.3346V12.16C14.3346 13.54 13.208 14.6667 11.828 14.6667H4.17464C2.79464 14.6667 1.66797 13.54 1.66797 12.16V7.67335C1.66797 6.29335 2.79464 5.16667 4.17464 5.16667H11.828C13.208 5.16667 14.3346 6.29335 14.3346 7.67335V8.63335H12.988C12.6146 8.63335 12.2746 8.78 12.028 9.03333Z" stroke="#858699" stroke-linecap="round" stroke-linejoin="round"/>
<path d="M1.66797 8.27334V5.22671C1.66797 4.43337 2.15464 3.72668 2.89464 3.44668L8.18797 1.44668C9.01464 1.13334 9.9013 1.7467 9.9013 2.63336V5.16669" stroke="#858699" stroke-linecap="round" stroke-linejoin="round"/>
<path d="M15.0386 9.31344V10.6868C15.0386 11.0535 14.7452 11.3535 14.3719 11.3668H13.0652C12.3452 11.3668 11.6852 10.8401 11.6252 10.1201C11.5852 9.70012 11.7452 9.30679 12.0252 9.03345C12.2719 8.78012 12.6119 8.63347 12.9852 8.63347H14.3719C14.7452 8.6468 15.0386 8.94677 15.0386 9.31344Z" stroke="#858699" stroke-linecap="round" stroke-linejoin="round"/>
<path d="M4.66602 8H9.33268" stroke="#858699" stroke-linecap="round" stroke-linejoin="round"/>
</g>
<defs>
<clipPath id="clip0_282_1351">
<rect width="16" height="16" fill="white"/>
</clipPath>
</defs>
</svg>
